<svg width="24" height="30" viewBox="0 0 24 30" fill="none" xmlns="http://www.w3.org/2000/svg">
<path d="M11.7857 0C8.66109 0.00368622 5.66549 1.24658 3.45603 3.45603C1.24658 5.66548 0.00369362 8.66108 7.39734e-06 11.7857C-0.00286546 14.339 0.831123 16.8229 2.37429 18.8571C2.37429 18.8571 2.69572 19.2804 2.74822 19.3414L11.7857 30L20.8275 19.3361C20.8747 19.2793 21.1972 18.8571 21.1972 18.8571L21.1982 18.8539C22.7403 16.8205 23.5739 14.3378 23.5714 11.7857C23.5678 8.66108 22.3249 5.66548 20.1154 3.45603C17.906 1.24658 14.9104 0.00368622 11.7857 0ZM11.7857 16.0714C10.9381 16.0714 10.1095 15.8201 9.40471 15.3492C8.69993 14.8782 8.15061 14.2089 7.82624 13.4258C7.50186 12.6427 7.41699 11.781 7.58236 10.9496C7.74772 10.1183 8.1559 9.35462 8.75526 8.75526C9.35463 8.15589 10.1183 7.74771 10.9496 7.58235C11.781 7.41698 12.6427 7.50185 13.4258 7.82623C14.2089 8.15061 14.8782 8.69992 15.3492 9.4047C15.8201 10.1095 16.0714 10.9381 16.0714 11.7857C16.07 12.9219 15.618 14.0112 14.8146 14.8146C14.0112 15.618 12.9219 16.07 11.7857 16.0714Z" fill="#F0B73F"/>
</svg>
