<svg width="25" height="25" viewBox="0 0 25 25" fill="none" xmlns="http://www.w3.org/2000/svg">
<g clip-path="url(#clip0_1_662)">
<path d="M20.55 11.8916H4.45C3.92533 11.8916 3.5 12.3169 3.5 12.8416V12.9416C3.5 13.4663 3.92533 13.8916 4.45 13.8916H20.55C21.0747 13.8916 21.5 13.4663 21.5 12.9416V12.8416C21.5 12.3169 21.0747 11.8916 20.55 11.8916Z" fill="black"/>
<path d="M20.55 16.8916H4.45C3.92533 16.8916 3.5 17.3169 3.5 17.8416V17.9416C3.5 18.4663 3.92533 18.8916 4.45 18.8916H20.55C21.0747 18.8916 21.5 18.4663 21.5 17.9416V17.8416C21.5 17.3169 21.0747 16.8916 20.55 16.8916Z" fill="black"/>
<path d="M20.55 6.8916H4.45C3.92533 6.8916 3.5 7.31693 3.5 7.8416V7.9416C3.5 8.46627 3.92533 8.8916 4.45 8.8916H20.55C21.0747 8.8916 21.5 8.46627 21.5 7.9416V7.8416C21.5 7.31693 21.0747 6.8916 20.55 6.8916Z" fill="black"/>
</g>
<defs>
<clipPath id="clip0_1_662">
<rect width="24" height="24" fill="white" transform="translate(0.5 0.891602)"/>
</clipPath>
</defs>
</svg>
