<svg width="36" height="36" viewBox="0 0 36 36" fill="none" xmlns="http://www.w3.org/2000/svg">
<path d="M31.1242 25.4406C30.0554 24.3637 27.4669 22.7921 26.211 22.1588C24.5755 21.335 24.4409 21.2677 23.1553 22.2227C22.2979 22.8601 21.7278 23.4295 20.7243 23.2155C19.7208 23.0015 17.5401 21.7947 15.6307 19.8913C13.7212 17.9879 12.4444 15.744 12.2297 14.7438C12.015 13.7437 12.5939 13.1803 13.2252 12.3209C14.115 11.1094 14.0476 10.9075 13.2871 9.27195C12.6941 7.99988 11.0768 5.43557 9.9959 4.37216C8.8396 3.22999 8.8396 3.43191 8.09454 3.74151C7.48794 3.99667 6.90601 4.3069 6.35605 4.6683C5.27918 5.38375 4.68151 5.97805 4.26355 6.87118C3.84558 7.76432 3.6578 9.85817 5.81627 13.7793C7.97473 17.7005 9.48909 19.7055 12.6235 22.8312C15.7579 25.9568 18.168 27.6374 21.6915 29.6135C26.0501 32.0546 27.722 31.5788 28.6178 31.1615C29.5136 30.7442 30.1106 30.1519 30.8274 29.075C31.1897 28.526 31.5006 27.9447 31.7562 27.3386C32.0665 26.5962 32.2684 26.5962 31.1242 25.4406Z" stroke="#91A7B0" stroke-width="3" stroke-miterlimit="10"/>
</svg>
