<svg width="36" height="36" viewBox="0 0 36 36" fill="none" xmlns="http://www.w3.org/2000/svg">
<path fill-rule="evenodd" clip-rule="evenodd" d="M24.5455 13.0909C24.5455 14.8268 23.8559 16.4917 22.6284 17.7192C21.4009 18.9467 19.736 19.6363 18 19.6363C16.2641 19.6363 14.5992 18.9467 13.3717 17.7192C12.1442 16.4917 11.4546 14.8268 11.4546 13.0909C11.4546 11.3549 12.1442 9.69004 13.3717 8.46253C14.5992 7.23502 16.2641 6.54541 18 6.54541C19.736 6.54541 21.4009 7.23502 22.6284 8.46253C23.8559 9.69004 24.5455 11.3549 24.5455 13.0909ZM21.2728 13.0909C21.2728 13.9588 20.928 14.7913 20.3142 15.405C19.7005 16.0188 18.868 16.3636 18 16.3636C17.1321 16.3636 16.2996 16.0188 15.6859 15.405C15.0721 14.7913 14.7273 13.9588 14.7273 13.0909C14.7273 12.2229 15.0721 11.3905 15.6859 10.7767C16.2996 10.1629 17.1321 9.81814 18 9.81814C18.868 9.81814 19.7005 10.1629 20.3142 10.7767C20.928 11.3905 21.2728 12.2229 21.2728 13.0909Z" fill="#91A7B0"/>
<path fill-rule="evenodd" clip-rule="evenodd" d="M18 0C8.05909 0 0 8.05909 0 18C0 27.9409 8.05909 36 18 36C27.9409 36 36 27.9409 36 18C36 8.05909 27.9409 0 18 0ZM3.27273 18C3.27273 21.42 4.43945 24.5684 6.39491 27.0687C7.76854 25.2657 9.54025 23.8044 11.5718 22.799C13.6033 21.7936 15.8397 21.2713 18.1064 21.2727C20.3439 21.2701 22.5525 21.7785 24.5637 22.7592C26.5749 23.7398 28.3355 25.1668 29.7115 26.9313C31.1293 25.0717 32.0839 22.9013 32.4964 20.5995C32.9088 18.2978 32.7673 15.9309 32.0834 13.6947C31.3995 11.4585 30.1929 9.41735 28.5635 7.74006C26.9341 6.06277 24.9288 4.79759 22.7134 4.0492C20.4979 3.3008 18.1361 3.09072 15.8234 3.43632C13.5107 3.78192 11.3135 4.67328 9.41362 6.03663C7.51377 7.39999 5.96587 9.19615 4.89801 11.2765C3.83015 13.3569 3.27302 15.6616 3.27273 18ZM18 32.7273C14.6191 32.7328 11.3402 31.5697 8.71855 29.4349C9.77369 27.9239 11.1783 26.6902 12.8128 25.8389C14.4474 24.9876 16.2634 24.5439 18.1064 24.5455C19.9263 24.5439 21.7203 24.9766 23.3394 25.8076C24.9585 26.6386 26.356 27.844 27.4156 29.3236C24.7737 31.5278 21.4407 32.7327 18 32.7273Z" fill="#91A7B0"/>
</svg>
