<svg width="40" height="40" viewBox="0 0 40 40" fill="none" xmlns="http://www.w3.org/2000/svg">
<rect width="40" height="40" rx="20" fill="#D7E0E5"/>
<g clip-path="url(#clip0_1_577)">
<path d="M29.543 14.498C30 16.28 30 20 30 20C30 20 30 23.72 29.543 25.502C29.289 26.487 28.546 27.262 27.605 27.524C25.896 28 20 28 20 28C20 28 14.107 28 12.395 27.524C11.45 27.258 10.708 26.484 10.457 25.502C10 23.72 10 20 10 20C10 20 10 16.28 10.457 14.498C10.711 13.513 11.454 12.738 12.395 12.476C14.107 12 20 12 20 12C20 12 25.896 12 27.605 12.476C28.55 12.742 29.292 13.516 29.543 14.498ZM18 23.5L24 20L18 16.5V23.5Z" fill="white"/>
</g>
<defs>
<clipPath id="clip0_1_577">
<rect width="24" height="24" fill="white" transform="translate(8 8)"/>
</clipPath>
</defs>
</svg>
